<svg width="120" height="22" viewBox="0 0 120 22" fill="none" xmlns="http://www.w3.org/2000/svg">
<path d="M0 10.6626C0 14.1925 2.42671 16.5804 5.58357 16.5804C7.7311 16.5804 9.25584 15.4799 9.96452 14.2548V16.6427C9.96452 19.0721 8.39683 20.3595 6.31373 20.3595C4.38095 20.3595 2.98506 19.4251 2.55556 18.0547H0.622783C1.00934 20.4841 3.22129 21.9999 6.31373 21.9999C9.77125 21.9999 11.9402 19.7781 11.9402 16.6427V5.01473H9.96452V7.09116C9.27731 5.86606 7.7311 4.82785 5.58357 4.82785C2.42671 4.82785 0 7.11192 0 10.6626ZM9.96452 10.6834C9.96452 13.362 8.11765 14.9193 5.97012 14.9193C3.8226 14.9193 1.9972 13.3412 1.9972 10.6626C1.9972 7.98402 3.8226 6.46823 5.97012 6.46823C8.11765 6.46823 9.96452 8.04631 9.96452 10.6834Z" fill="white"/>
<path d="M26.4099 10.6834C26.4099 7.09116 23.8114 4.82785 20.4612 4.82785C17.1326 4.82785 14.5126 7.09116 14.5126 10.6834C14.5126 14.2964 17.0467 16.5804 20.3753 16.5804C23.7255 16.5804 26.4099 14.2964 26.4099 10.6834ZM16.5098 10.6834C16.5098 7.8179 18.3781 6.46823 20.4398 6.46823C22.4584 6.46823 24.4127 7.8179 24.4127 10.6834C24.4127 13.5696 22.4155 14.9193 20.3753 14.9193C18.3352 14.9193 16.5098 13.5696 16.5098 10.6834Z" fill="white"/>
<path d="M30.1032 16.3937H32.5729V6.88367H34.7634V4.9526H32.5729V4.14279C32.5729 2.83464 33.0883 2.3363 34.5916 2.3363V0.363693C31.4991 0.363693 30.1032 1.50573 30.1032 4.14279V4.9526H28.7073V6.88367H30.1032V16.3937Z" fill="white"/>
<path d="M36.933 16.3937H39.3812V4.9526H36.933V16.3937ZM38.1786 3.4368C39.0376 3.4368 39.7248 2.77235 39.7248 1.92101C39.7248 1.06968 39.0376 0.405221 38.1786 0.405221C37.2981 0.405221 36.6109 1.06968 36.6109 1.92101C36.6109 2.77235 37.2981 3.4368 38.1786 3.4368Z" fill="white"/>
<path d="M50.9923 16.3937H53.419V9.64532C53.419 6.44762 51.3359 4.76572 48.5656 4.76572C47.1482 4.76572 45.8382 5.32635 45.0436 6.26074V4.9526H42.5955V16.3937H45.0436V9.99831C45.0436 7.90112 46.2248 6.82138 48.0287 6.82138C49.8111 6.82138 50.9923 7.90112 50.9923 9.99831V16.3937Z" fill="white"/>
<path d="M55.7257 10.6212C55.7257 14.1512 58.1954 16.5806 61.2663 16.5806C63.2421 16.5806 64.6594 15.667 65.4111 14.691V16.3937H67.8807V4.9526H65.4111V6.61374C64.6809 5.67934 63.3065 4.76572 61.3093 4.76572C58.1954 4.76572 55.7257 7.09131 55.7257 10.6212ZM65.4111 10.6628C65.4111 13.1337 63.6716 14.5249 61.8247 14.5249C59.9993 14.5249 58.2383 13.0922 58.2383 10.6212C58.2383 8.15029 59.9993 6.82138 61.8247 6.82138C63.6716 6.82138 65.4111 8.21258 65.4111 10.6628Z" fill="white"/>
<path d="M79.4931 16.3937H81.9198V9.64532C81.9198 6.44762 79.8367 4.76572 77.0664 4.76572C75.6491 4.76572 74.3391 5.32635 73.5445 6.26074V4.9526H71.0963V16.3937H73.5445V9.99831C73.5445 7.90112 74.7256 6.82138 76.5296 6.82138C78.312 6.82138 79.4931 7.90112 79.4931 9.99831V16.3937Z" fill="white"/>
<path d="M84.2266 10.6628C84.2266 14.255 86.6318 16.5806 90.0249 16.5806C92.9241 16.5806 94.8139 15.0233 95.4796 12.7807H92.8382C92.3872 13.9643 91.4852 14.5872 90.0249 14.5872C88.0492 14.5872 86.7392 13.1752 86.7392 10.6628C86.7392 8.17105 88.0492 6.75909 90.0249 6.75909C91.4852 6.75909 92.4301 7.46507 92.8382 8.56558H95.4796C94.8139 6.15692 92.9241 4.76572 90.0249 4.76572C86.6318 4.76572 84.2266 7.09131 84.2266 10.6628Z" fill="white"/>
<path d="M102.902 6.75909C104.727 6.75909 106.166 7.88035 106.209 9.64532H99.6589C99.9166 7.83883 101.248 6.75909 102.902 6.75909ZM108.442 12.9884H105.801C105.35 13.8812 104.512 14.5872 103.009 14.5872C101.205 14.5872 99.8092 13.4452 99.6374 11.5556H108.679C108.743 11.1611 108.764 10.7874 108.764 10.3928C108.764 7.02902 106.381 4.76572 103.009 4.76572C99.5086 4.76572 97.1034 7.07055 97.1034 10.6628C97.1034 14.255 99.616 16.5806 103.009 16.5806C105.908 16.5806 107.777 14.9817 108.442 12.9884Z" fill="white"/>
<path d="M120 13.196C119.871 9.06392 113.192 10.3513 113.192 8.04647C113.192 7.27819 113.88 6.75909 115.19 6.75909C116.521 6.75909 117.316 7.44431 117.401 8.44099H119.85C119.721 6.15692 117.96 4.76572 115.275 4.76572C112.484 4.76572 110.723 6.23998 110.723 8.06723C110.723 12.2616 117.595 10.9742 117.595 13.2168C117.595 14.0058 116.843 14.5872 115.426 14.5872C114.073 14.5872 113.149 13.8189 113.063 12.8845H110.529C110.637 14.961 112.634 16.5806 115.469 16.5806C118.261 16.5806 120 15.1271 120 13.196Z" fill="white"/>
</svg>
